<svg
                            
                            width="16"
                            height="12"
                            viewBox="0 0 16 12"
                            fill="none"
                            xmlns="http://www.w3.org/2000/svg"
                        >
                            <path
                                d="M0.826233 6.10984C0.826233 5.75668 1.15116 5.47095 1.55112 5.47095H14.672C14.8643 5.47095 15.0486 5.53826 15.1846 5.65808C15.3205 5.77789 15.3969 5.9404 15.3969 6.10984C15.3969 6.27929 15.3205 6.4418 15.1846 6.56161C15.0486 6.68143 14.8643 6.74874 14.672 6.74874H1.55112C1.35887 6.74874 1.17449 6.68143 1.03855 6.56161C0.902605 6.4418 0.826233 6.27929 0.826233 6.10984Z"
                            />
                            <path
                                d="M0.826233 10.9654C0.826233 10.6123 1.15116 10.3265 1.55112 10.3265H14.672C14.8643 10.3265 15.0486 10.3939 15.1846 10.5137C15.3205 10.6335 15.3969 10.796 15.3969 10.9654C15.3969 11.1349 15.3205 11.2974 15.1846 11.4172C15.0486 11.537 14.8643 11.6043 14.672 11.6043H1.55112C1.35887 11.6043 1.17449 11.537 1.03855 11.4172C0.902605 11.2974 0.826233 11.1349 0.826233 10.9654Z"
                            />
                            <path
                                d="M0.826233 1.25425C0.826233 0.901094 1.15116 0.615356 1.55112 0.615356H14.672C14.8643 0.615356 15.0486 0.682668 15.1846 0.802485C15.3205 0.922301 15.3969 1.08481 15.3969 1.25425C15.3969 1.4237 15.3205 1.5862 15.1846 1.70602C15.0486 1.82584 14.8643 1.89315 14.672 1.89315H1.55112C1.35887 1.89315 1.17449 1.82584 1.03855 1.70602C0.902605 1.5862 0.826233 1.4237 0.826233 1.25425Z"
                            />
                        </svg>