<svg
                            
                            
                            viewBox="0 0 27 30"
                            fill="none"
                            xmlns="http://www.w3.org/2000/svg"
                        >
                            <path
                                d="M26.9949 29.014L24.624 7.30064C24.5742 6.84608 24.1758 6.50093 23.7005 6.50093H19.2441V5.52383C19.2441 2.4781 16.6672 0 13.5001 0C10.3328 0 7.75588 2.4781 7.75588 5.52383V6.50093H3.29949C2.8242 6.50093 2.42578 6.84608 2.37604 7.30064L0.00504091 29.014C-0.0223296 29.2655 0.0626379 29.5166 0.238523 29.7047C0.414646 29.8927 0.665502 30 0.928497 30H26.0713C26.3345 30 26.5853 29.8927 26.7612 29.7047C26.9376 29.5166 27.0223 29.2655 26.9949 29.014ZM9.61279 5.52383C9.61279 3.46275 11.3566 1.78574 13.5001 1.78574C15.6433 1.78574 17.3872 3.46275 17.3872 5.52383V6.50093H9.61279V5.52383ZM1.95953 28.2143L4.1356 8.28667H7.75588V10.2544C7.75588 10.7474 8.17168 11.1472 8.68434 11.1472C9.197 11.1472 9.61279 10.7474 9.61279 10.2544V8.28667H17.3872V10.2544C17.3872 10.7474 17.803 11.1472 18.3157 11.1472C18.8283 11.1472 19.2441 10.7474 19.2441 10.2544V8.28667H22.8644L25.0405 28.2143H1.95953Z"
                            />
                        </svg>