<svg
            
            width="21"
            height="12"
            viewBox="0 0 21 12"
            fill="none"
            xmlns="http://www.w3.org/2000/svg"
          >
            <path
              d="M0 0.857143C0 0.383756 0.375683 0 0.839112 0H9.66089C10.1243 0 10.5 0.383756 10.5 0.857143C10.5 1.33053 10.1243 1.71429 9.66089 1.71429H0.839112C0.375683 1.71429 0 1.33053 0 0.857143Z"
            />
            <path
              d="M0 6C0 5.52661 0.375683 5.14286 0.839112 5.14286H20.1609C20.6243 5.14286 21 5.52661 21 6C21 6.47339 20.6243 6.85714 20.1609 6.85714H0.839112C0.375683 6.85714 0 6.47339 0 6Z"
            />
            <path
              d="M8.59065 11.1429C8.59065 10.6695 8.96633 10.2857 9.42976 10.2857H18.2515C18.715 10.2857 19.0907 10.6695 19.0907 11.1429C19.0907 11.6162 18.715 12 18.2515 12H9.42976C8.96633 12 8.59065 11.6162 8.59065 11.1429Z"
            />
          </svg>