<svg width="49" height="49" viewBox="0 0 49 49" fill="none" xmlns="http://www.w3.org/2000/svg">
    <g opacity="0.2">
        <circle cx="2.1" cy="24.4999" r="2.1" fill="#949494"/>
        <circle cx="2.1" cy="13.3" r="2.1" fill="#949494"/>
        <circle cx="2.1" cy="2.1" r="2.1" fill="#949494"/>
        <circle cx="2.1" cy="35.7001" r="2.1" fill="#949494"/>
        <circle cx="2.1" cy="46.9" r="2.1" fill="#949494"/>
        <circle cx="24.5" cy="24.4999" r="2.1" fill="#949494"/>
        <circle cx="24.5" cy="13.3" r="2.1" fill="#949494"/>
        <circle cx="24.5" cy="2.1" r="2.1" fill="#949494"/>
        <circle cx="24.5" cy="35.7001" r="2.1" fill="#949494"/>
        <circle cx="24.5" cy="46.9" r="2.1" fill="#949494"/>
        <circle cx="13.3" cy="24.4999" r="2.1" fill="#949494"/>
        <circle cx="13.3" cy="13.3" r="2.1" fill="#949494"/>
        <circle cx="13.3" cy="2.1" r="2.1" fill="#949494"/>
        <circle cx="13.3" cy="35.7001" r="2.1" fill="#949494"/>
        <circle cx="13.3" cy="46.9" r="2.1" fill="#949494"/>
        <circle cx="35.7" cy="24.4999" r="2.1" fill="#949494"/>
        <circle cx="35.7" cy="13.3" r="2.1" fill="#949494"/>
        <circle cx="35.7" cy="2.1" r="2.1" fill="#949494"/>
        <circle cx="35.7" cy="35.7001" r="2.1" fill="#949494"/>
        <circle cx="35.7" cy="46.9" r="2.1" fill="#949494"/>
        <circle cx="46.9" cy="24.4999" r="2.1" fill="#949494"/>
        <circle cx="46.9" cy="13.3" r="2.1" fill="#949494"/>
        <circle cx="46.9" cy="2.1" r="2.1" fill="#949494"/>
        <circle cx="46.9" cy="35.7001" r="2.1" fill="#949494"/>
        <circle cx="46.9" cy="46.9" r="2.1" fill="#949494"/>
    </g>
    <path d="M29.2995 21.545C28.8604 21.1059 28.1478 21.1057 27.7084 21.545L25.6035 23.6497C24.317 23.1093 22.1699 20.9672 21.626 19.6728L23.731 17.5681C24.1703 17.1289 24.1703 16.4166 23.731 15.9774L19.3557 11.6028C18.9167 11.1638 18.2039 11.1635 17.7647 11.6028L15.3783 13.9889C14.1948 15.1721 14.05 17.1415 14.9706 19.5344C17.6227 26.4289 27.5619 33.6222 31.2884 29.8964L33.6749 27.5103C34.1142 27.0711 34.1142 26.3588 33.6749 25.9196L29.2995 21.545ZM29.6973 28.3057C29.203 28.7997 27.9969 28.761 26.5495 28.2043C22.8098 26.7663 18.5131 22.4769 17.0705 18.7268C16.5137 17.2797 16.4749 16.0738 16.9691 15.5796L18.5601 13.9889L21.3444 16.7727L19.7534 18.3634C19.3293 18.7874 18.9962 19.6035 19.8183 21.0829C21.0245 23.2537 25.1459 27.2886 26.913 25.5219L28.504 23.9312L31.2883 26.715L29.6973 28.3057Z" fill="#FCA200"/>
    <path d="M33.1879 6.15625H15.1876C11.7758 6.15625 9 8.93161 9 12.3429V30.3405C9 33.7518 11.7758 36.5272 15.1876 36.5272H20.1757L23.223 41.6053C23.6583 42.3306 24.7145 42.3349 25.1524 41.6053L28.1998 36.5272H33.1879C36.5997 36.5272 39.3755 33.7518 39.3755 30.3405V12.3429C39.3755 8.93161 36.5998 6.15625 33.1879 6.15625ZM37.1254 30.3405C37.1254 32.5114 35.359 34.2775 33.1879 34.2775H27.5628C27.1676 34.2775 26.8014 34.4848 26.5981 34.8237L24.1877 38.8403L21.7774 34.8237C21.574 34.4849 21.2078 34.2775 20.8127 34.2775H15.1876C13.0165 34.2775 11.25 32.5114 11.25 30.3405V12.3429C11.25 10.172 13.0165 8.40595 15.1876 8.40595H33.1879C35.359 8.40595 37.1254 10.172 37.1254 12.3429V30.3405Z" fill="#FCA200"/>
</svg>
