<svg width="93" height="93" viewBox="0 0 93 93" fill="none" xmlns="http://www.w3.org/2000/svg">
    <g opacity="0.2">
        <circle cx="3" cy="46.4285" r="3" fill="#949494"/>
        <circle cx="3" cy="24.7141" r="3" fill="#949494"/>
        <circle cx="3" cy="3" r="3" fill="#949494"/>
        <circle cx="3" cy="68.1428" r="3" fill="#949494"/>
        <circle cx="3" cy="89.8572" r="3" fill="#949494"/>
        <circle cx="46.4279" cy="46.4285" r="3" fill="#949494"/>
        <circle cx="46.4279" cy="24.7141" r="3" fill="#949494"/>
        <circle cx="46.4283" cy="3" r="3" fill="#949494"/>
        <circle cx="46.4279" cy="68.1428" r="3" fill="#949494"/>
        <circle cx="46.4279" cy="89.8572" r="3" fill="#949494"/>
        <circle cx="24.7143" cy="46.4285" r="3" fill="#949494"/>
        <circle cx="24.7143" cy="24.7141" r="3" fill="#949494"/>
        <circle cx="24.7147" cy="3" r="3" fill="#949494"/>
        <circle cx="24.7143" cy="68.1428" r="3" fill="#949494"/>
        <circle cx="24.7143" cy="89.8572" r="3" fill="#949494"/>
        <circle cx="68.1429" cy="46.4285" r="3" fill="#949494"/>
        <circle cx="68.1429" cy="24.7141" r="3" fill="#949494"/>
        <circle cx="68.1432" cy="3" r="3" fill="#949494"/>
        <circle cx="68.1429" cy="68.1428" r="3" fill="#949494"/>
        <circle cx="68.1429" cy="89.8572" r="3" fill="#949494"/>
        <circle cx="89.8573" cy="46.4285" r="3" fill="#949494"/>
        <circle cx="89.8573" cy="24.7141" r="3" fill="#949494"/>
        <circle cx="89.8575" cy="3" r="3" fill="#949494"/>
        <circle cx="89.8573" cy="68.1428" r="3" fill="#949494"/>
        <circle cx="89.8573" cy="89.8572" r="3" fill="#949494"/>
    </g>
    <path d="M43.0741 60.3011H48.2162V58.767C48.3014 52.517 50.0059 49.6761 55.148 46.2955C60.5457 42.7727 63.273 38.7386 63.273 32.9716C63.273 24.3068 56.7957 18 47.3639 18C38.3014 18 31.2843 23.9943 31.0002 33.3409H36.3696C36.6537 26.2955 41.6821 22.5455 47.3639 22.5455C53.3582 22.5455 58.1025 26.608 58.1025 32.7443C58.1025 37.1193 55.773 40.2727 51.6252 42.9716C45.9718 46.5795 43.1309 49.7898 43.0741 58.767V60.3011ZM45.8014 77.4034C48.0741 77.4034 49.8923 75.5568 49.8923 73.3125C49.8923 71.0398 48.0741 69.2216 45.8014 69.2216C43.5571 69.2216 41.7105 71.0398 41.7105 73.3125C41.7105 75.5568 43.5571 77.4034 45.8014 77.4034Z" fill="#FCA200"/>
</svg>
