<svg
                            
                            width="30"
                            height="29"
                            viewBox="0 0 30 29"
                            fill="none"
                            xmlns="http://www.w3.org/2000/svg"
                        >
                            <path
                                d="M29.2742 5.94297C28.8087 4.78 28.1376 3.72613 27.2983 2.84035C26.4584 1.95193 25.4681 1.24591 24.3813 0.760694C23.2543 0.255555 22.0456 -0.0030044 20.8253 2.63381e-05C19.1133 2.63381e-05 17.443 0.505889 15.9914 1.46141C15.6442 1.68998 15.3143 1.94104 15.0017 2.21458C14.6892 1.94104 14.3593 1.68998 14.012 1.46141C12.5605 0.505889 10.8901 2.63381e-05 9.17813 2.63381e-05C7.94535 2.63381e-05 6.75077 0.254831 5.62217 0.760694C4.53177 1.24782 3.54902 1.94853 2.70517 2.84035C1.86479 3.72513 1.19346 4.77925 0.72925 5.94297C0.246556 7.1533 0 8.43856 0 9.7613C0 11.0091 0.236138 12.3093 0.704942 13.6321C1.09735 14.7375 1.65991 15.8841 2.37874 17.042C3.51776 18.8743 5.08392 20.7854 7.02858 22.7226C10.2512 25.9339 13.4425 28.1522 13.5779 28.2421L14.401 28.8117C14.7656 29.0628 15.2344 29.0628 15.599 28.8117L16.422 28.2421C16.5575 28.1485 19.7453 25.9339 22.9714 22.7226C24.916 20.7854 26.4822 18.8743 27.6212 17.042C28.3401 15.8841 28.9061 14.7375 29.295 13.6321C29.7638 12.3093 30 11.0091 30 9.7613C30.0034 8.43856 29.7569 7.1533 29.2742 5.94297ZM15 26.5143C15 26.5143 2.31818 17.2059 2.31818 9.66667C2.31818 5.84834 5.56661 2.49788 9.17813 2.49788C11.7166 2.49788 13.9165 3.29052 15 5.52381C16.0835 3.29052 18.2868 2.49788 20.8253 2.49788C24.4368 2.49788 27.9545 5.84834 27.9545 9.66667C27.9545 17.2059 15 26.5143 15 26.5143Z"
                            />
                        </svg>