<svg width="65" height="55" viewBox="0 0 77 68" fill="none" xmlns="http://www.w3.org/2000/svg">
    <path d="M17.5001 31.0276H59.1913C59.0369 31.0276 58.4192 29.6184 58.2648 29.3667C57.8531 28.7124 57.4928 28.0078 57.081 27.3536C56.3604 26.0953 55.6398 24.7868 54.9192 23.428C53.5295 20.7102 52.3457 17.7911 51.0589 14.9727C49.6178 11.953 47.9707 9.18492 46.1692 6.66849C45.0369 5.05797 43.8016 3.64878 42.2575 2.9945C39.8898 1.9376 37.2134 1.93762 34.7942 2.79321C31.2428 4.10175 28.9266 8.37969 26.9192 12.6073C24.3972 17.8918 22.081 23.3273 19.3531 28.3098L17.5001 31.0276Z" fill="#FCA200"/>
    <path d="M8.95588 48.3408H4.375L3.80882 50.203H0L4.375 37.3188H9.16177L13.5368 50.203H9.52206L8.95588 48.3408ZM6.69118 40.9929L5.30147 45.3714H8.02942L6.69118 40.9929Z" fill="#FCA200"/>
    <path d="M17.9118 43.4586V50.2026H14.2574V37.3185H18.478L22.5957 44.2135V37.3185H26.2501V50.2026H22.0295L17.9118 43.4586Z" fill="#FCA200"/>
    <path d="M30.8308 50.2533V40.6405H27.2278V37.3691H38.1911V40.6405H34.5881V50.2533H30.8308Z" fill="#FCA200"/>
    <path d="M47.2499 45.5221H42.8749V50.2026H39.1176V37.3185H42.8749V42.2507H47.2499V37.3185H51.0073V50.2026H47.2499V45.5221Z" fill="#FCA200"/>
    <path d="M52.3456 50.2533V37.3691H56.103V50.2533H52.3456Z" fill="#FCA200"/>
    <path d="M57.4413 37.3691H61.1986V46.9819H66.706V50.2533H57.4413V37.3691Z" fill="#FCA200"/>
    <path d="M67.7354 37.3691H71.4927V46.9819H77.0001V50.2533H67.7354V37.3691Z" fill="#FCA200"/>
    <path d="M23.8821 67.0626V57.4498H20.2792V54.1785H31.2424V57.4498H27.6395V67.0626H23.8821Z" fill="#FCA200"/>
    <path d="M33.456 65.452C32.1178 64.1435 31.3972 62.5329 31.3972 60.6708C31.3972 58.8086 32.0663 57.1981 33.456 55.8896C34.7943 54.581 36.4413 53.9771 38.3457 53.9771C40.3016 53.9771 41.8972 54.6313 43.2869 55.8896C44.6252 57.1981 45.3458 58.8086 45.3458 60.6708C45.3458 62.5833 44.6766 64.1938 43.2869 65.452C41.9487 66.7102 40.3016 67.3645 38.3457 67.3645C36.3899 67.3645 34.7943 66.7102 33.456 65.452ZM40.559 58.3557C39.9413 57.7014 39.2207 57.3994 38.3457 57.3994C37.4707 57.3994 36.7502 57.7014 36.1325 58.3557C35.5149 59.01 35.206 59.7649 35.206 60.6205C35.206 61.5264 35.5149 62.2813 36.1325 62.9356C36.7502 63.5395 37.4707 63.8918 38.3457 63.8918C39.2207 63.8918 39.9413 63.5898 40.559 62.9356C41.1766 62.3316 41.4855 61.5264 41.4855 60.6205C41.4855 59.7649 41.1766 58.9596 40.559 58.3557Z" fill="#FCA200"/>
    <path d="M50.0808 63.8415V67.1129H46.3235V54.1785H52.4485C53.8897 54.1785 55.0735 54.6314 55.897 55.5373C56.7205 56.4432 57.1323 57.5505 57.1323 58.8591C57.1323 60.2683 56.6691 61.4761 55.7941 62.4324C54.9191 63.3383 53.6323 63.8415 52.0367 63.8415H50.0808ZM50.0808 57.4498V60.5199H51.625C52.7058 60.5199 53.3235 59.9663 53.3235 58.9597C53.3235 57.9028 52.7573 57.3995 51.625 57.3995H50.0808V57.4498Z" fill="#FCA200"/>
    <path d="M35.5148 32.7893C35.309 32.7893 35.1031 32.6886 34.9487 32.5376C34.7943 32.3866 34.6913 32.1853 34.6913 31.9839C34.6913 31.7826 34.7943 31.5813 34.9487 31.4302C35.2575 31.1282 35.8237 31.1282 36.1325 31.4302C36.2869 31.5813 36.3899 31.7826 36.3899 31.9839C36.3899 32.1853 36.2869 32.3866 36.1325 32.5376C35.9781 32.6886 35.7722 32.7893 35.5148 32.7893Z" fill="white"/>
    <path d="M37.8307 29.4179C37.419 29.2165 37.316 28.7132 37.5219 28.3106C37.7278 27.908 38.2425 27.757 38.6543 27.9583C39.066 28.1596 39.169 28.5119 38.9631 29.0152C38.8087 29.0152 38.5513 29.4682 38.2425 29.4682C38.0881 29.4682 37.9851 29.4682 37.8307 29.4179ZM37.8307 24.8379C37.7278 24.3849 37.9851 23.9824 38.4484 23.8817C38.8601 23.781 39.3234 24.0327 39.4263 24.4856C39.5293 24.9386 39.2719 25.3412 38.8087 25.4419C38.7572 25.4419 38.6543 25.4419 38.6028 25.4419C38.2425 25.4419 37.8822 25.1902 37.8307 24.8379ZM36.1837 21.1136C35.9778 20.711 36.1322 20.258 36.544 20.0567C36.9557 19.8554 37.419 20.0064 37.6249 20.409C37.8307 20.8116 37.6763 21.2646 37.2645 21.4659C37.1616 21.5162 37.0072 21.5665 36.9043 21.5665C36.6469 21.5665 36.3381 21.4156 36.1837 21.1136ZM34.794 16.8357C34.7425 16.3827 35.1028 16.0304 35.566 15.9801C36.0293 15.9297 36.441 16.282 36.441 16.735C36.441 17.1879 36.1322 17.5403 35.669 17.5906H35.6175C35.2057 17.5906 34.8454 17.2886 34.794 16.8357ZM36.1322 13.4133C35.7204 13.2623 35.5145 12.8094 35.669 12.3564C35.8234 11.9538 36.2866 11.7525 36.7498 11.9035C37.1616 12.0544 37.3675 12.5074 37.2131 12.9603C37.1101 13.2623 36.8013 13.4636 36.441 13.4636C36.3381 13.4636 36.2351 13.4636 36.1322 13.4133ZM37.8822 9.58834C37.4704 9.48769 37.2131 9.03473 37.316 8.58177C37.419 8.17914 37.8822 7.92748 38.3454 8.02814C38.7572 8.12879 39.0146 8.58175 38.9116 9.03471C38.8087 9.38701 38.4999 9.63866 38.1396 9.63866C38.0366 9.58833 37.9337 9.58834 37.8822 9.58834ZM37.6763 4.70646C37.6249 4.2535 37.9851 3.85086 38.4484 3.85086C38.9116 3.80054 39.3234 4.15284 39.3234 4.60579C39.3748 5.05875 39.0146 5.41106 38.5513 5.46139H38.4998C38.0881 5.46139 37.7278 5.10909 37.6763 4.70646Z" fill="white"/>
    <path d="M36.8017 1.5856C36.5958 1.5856 36.3899 1.48492 36.2355 1.33391C36.0811 1.18291 35.9781 0.981573 35.9781 0.780229C35.9781 0.578884 36.0811 0.377521 36.2355 0.226513C36.5443 -0.0755042 37.1105 -0.0755042 37.4193 0.226513C37.5737 0.377521 37.6767 0.578884 37.6767 0.780229C37.6767 0.981573 37.5737 1.18291 37.4193 1.33391C37.2134 1.53526 37.0075 1.5856 36.8017 1.5856Z" fill="white"/>
</svg>