<svg width="48" height="43" viewBox="0 0 48 43" fill="none" xmlns="http://www.w3.org/2000/svg">
    <path d="M10.9091 20.3407H36.8984C36.8021 20.3407 36.4171 19.4622 36.3209 19.3054C36.0642 18.8975 35.8396 18.4583 35.5829 18.0504C35.1337 17.2661 34.6845 16.4504 34.2353 15.6033C33.369 13.9091 32.631 12.0894 31.8289 10.3325C30.9305 8.45007 29.9037 6.72451 28.7807 5.15583C28.0749 4.15187 27.3048 3.27341 26.3422 2.86555C24.8663 2.2067 23.1979 2.20671 21.6898 2.74007C19.4759 3.55578 18.0321 6.22255 16.7807 8.85794C15.2085 12.1522 13.7647 15.5405 12.0642 18.6465L10.9091 20.3407Z" fill="#FCA200"/>
    <path d="M5.58289 31.1333H2.72727L2.37433 32.2941H0L2.72727 24.2625H5.71123L8.43851 32.2941H5.93583L5.58289 31.1333ZM4.17112 26.5527L3.30481 29.2822H5.00535L4.17112 26.5527Z" fill="#FCA200"/>
    <path d="M11.1658 28.09V32.2941H8.88773V24.2625H11.5187L14.0856 28.5606V24.2625H16.3637V32.2941H13.7326L11.1658 28.09Z" fill="#FCA200"/>
    <path d="M19.2193 32.3256V26.3332H16.9733V24.2939H23.8075V26.3332H21.5615V32.3256H19.2193Z" fill="#FCA200"/>
    <path d="M29.4545 29.3764H26.7273V32.2941H24.385V24.2625H26.7273V27.3371H29.4545V24.2625H31.7968V32.2941H29.4545V29.3764Z" fill="#FCA200"/>
    <path d="M32.631 32.3256V24.2939H34.9733V32.3256H32.631Z" fill="#FCA200"/>
    <path d="M35.8075 24.2939H38.1497V30.2863H41.5829V32.3256H35.8075V24.2939Z" fill="#FCA200"/>
    <path d="M42.2246 24.2939H44.5669V30.2863H48V32.3256H42.2246V24.2939Z" fill="#FCA200"/>
    <path d="M14.8877 42.8042V36.8119H12.6417V34.7726H19.476V36.8119H17.23V42.8042H14.8877Z" fill="#FCA200"/>
    <path d="M20.8556 41.8003C20.0214 40.9846 19.5722 39.9806 19.5722 38.8198C19.5722 37.659 19.9893 36.655 20.8556 35.8393C21.6899 35.0236 22.7166 34.6471 23.9038 34.6471C25.123 34.6471 26.1177 35.055 26.984 35.8393C27.8182 36.655 28.2674 37.659 28.2674 38.8198C28.2674 40.012 27.8503 41.016 26.984 41.8003C26.1497 42.5847 25.123 42.9925 23.9038 42.9925C22.6845 42.9925 21.6899 42.5847 20.8556 41.8003ZM25.2834 37.3766C24.8984 36.9688 24.4492 36.7805 23.9038 36.7805C23.3583 36.7805 22.9091 36.9688 22.5241 37.3766C22.1391 37.7845 21.9465 38.2551 21.9465 38.7884C21.9465 39.3532 22.1391 39.8238 22.5241 40.2316C22.9091 40.6081 23.3583 40.8277 23.9038 40.8277C24.4492 40.8277 24.8984 40.6395 25.2834 40.2316C25.6685 39.8551 25.861 39.3532 25.861 38.7884C25.861 38.2551 25.6685 37.7531 25.2834 37.3766Z" fill="#FCA200"/>
    <path d="M31.2192 40.7963V42.8356H28.877V34.7726H32.6952C33.5936 34.7726 34.3315 35.0549 34.8449 35.6197C35.3583 36.1844 35.615 36.8746 35.615 37.6904C35.615 38.5688 35.3262 39.3218 34.7807 39.9179C34.2353 40.4826 33.4331 40.7963 32.4385 40.7963H31.2192ZM31.2192 36.8119V38.7257H32.1818C32.8556 38.7257 33.2406 38.3806 33.2406 37.7531C33.2406 37.0942 32.8877 36.7805 32.1818 36.7805H31.2192V36.8119Z" fill="#FCA200"/>
    <path d="M22.139 21.4388C22.0107 21.4388 21.8824 21.3761 21.7861 21.282C21.6898 21.1878 21.6257 21.0623 21.6257 20.9368C21.6257 20.8113 21.6898 20.6858 21.7861 20.5916C21.9786 20.4034 22.3316 20.4034 22.5241 20.5916C22.6203 20.6858 22.6845 20.8113 22.6845 20.9368C22.6845 21.0623 22.6203 21.1878 22.5241 21.282C22.4278 21.3761 22.2995 21.4388 22.139 21.4388Z" fill="white"/>
    <path d="M23.5829 19.3371C23.3262 19.2116 23.2621 18.8978 23.3904 18.6468C23.5188 18.3959 23.8396 18.3018 24.0963 18.4272C24.353 18.5527 24.4172 18.7723 24.2888 19.0861C24.1926 19.0861 24.0321 19.3685 23.8396 19.3685C23.7434 19.3685 23.6792 19.3685 23.5829 19.3371ZM23.5829 16.4821C23.5188 16.1997 23.6792 15.9487 23.968 15.886C24.2246 15.8232 24.5134 15.9801 24.5776 16.2625C24.6418 16.5448 24.4813 16.7958 24.1926 16.8586C24.1605 16.8586 24.0963 16.8586 24.0642 16.8586C23.8396 16.8586 23.615 16.7017 23.5829 16.4821ZM22.5562 14.1604C22.4278 13.9094 22.5241 13.627 22.7808 13.5015C23.0375 13.3761 23.3263 13.4702 23.4546 13.7212C23.5829 13.9722 23.4867 14.2545 23.23 14.38C23.1658 14.4114 23.0696 14.4428 23.0054 14.4428C22.845 14.4428 22.6524 14.3487 22.5562 14.1604ZM21.6899 11.4937C21.6578 11.2113 21.8824 10.9917 22.1712 10.9603C22.4599 10.9289 22.7166 11.1485 22.7166 11.4309C22.7166 11.7133 22.5241 11.9329 22.2353 11.9643H22.2033C21.9466 11.9643 21.722 11.776 21.6899 11.4937ZM22.5241 9.36024C22.2674 9.26611 22.1391 8.98376 22.2353 8.7014C22.3316 8.45041 22.6204 8.3249 22.9091 8.41902C23.1658 8.51314 23.2942 8.7955 23.1979 9.07786C23.1337 9.26611 22.9412 9.3916 22.7166 9.3916C22.6524 9.3916 22.5883 9.39161 22.5241 9.36024ZM23.615 6.97584C23.3583 6.91309 23.1979 6.63073 23.2621 6.34837C23.3262 6.09738 23.615 5.9405 23.9038 6.00324C24.1605 6.06599 24.3209 6.34835 24.2567 6.63072C24.1926 6.85033 24 7.00721 23.7754 7.00721C23.7113 6.97583 23.6471 6.97584 23.615 6.97584ZM23.4867 3.93259C23.4546 3.65022 23.6792 3.39923 23.968 3.39923C24.2567 3.36786 24.5134 3.58747 24.5134 3.86983C24.5455 4.1522 24.3209 4.37182 24.0321 4.40319H24C23.7434 4.40319 23.5188 4.18358 23.4867 3.93259Z" fill="white"/>
    <path d="M22.9412 1.9872C22.8129 1.9872 22.6845 1.92445 22.5883 1.83031C22.492 1.73618 22.4278 1.61067 22.4278 1.48516C22.4278 1.35964 22.492 1.23412 22.5883 1.13998C22.7808 0.951712 23.1337 0.951712 23.3262 1.13998C23.4225 1.23412 23.4867 1.35964 23.4867 1.48516C23.4867 1.61067 23.4225 1.73618 23.3262 1.83031C23.1979 1.95582 23.0695 1.9872 22.9412 1.9872Z" fill="white"/>
</svg>
