<svg
                        width="16"
                        
                        height="16"
                        viewBox="0 0 16 16"
                        fill="none"
                        xmlns="http://www.w3.org/2000/svg"
                    >
                        <path
                            d="M15.5984 14.692L11.1293 10.2229C11.9769 9.17642 12.4872 7.84601 12.4872 6.39751C12.4872 3.03963 9.7553 0.307739 6.39742 0.307739C3.03954 0.307739 0.307678 3.03963 0.307678 6.39751C0.307678 9.75539 3.03957 12.4873 6.39745 12.4873C7.84595 12.4873 9.17636 11.977 10.2228 11.1294L14.692 15.5985C14.8172 15.7236 15.0201 15.7236 15.1453 15.5985L15.5984 15.1453C15.7236 15.0201 15.7236 14.8172 15.5984 14.692ZM6.39745 11.2052C3.74633 11.2052 1.58974 9.04862 1.58974 6.39751C1.58974 3.74639 3.74633 1.5898 6.39745 1.5898C9.04857 1.5898 11.2052 3.74639 11.2052 6.39751C11.2052 9.04862 9.04857 11.2052 6.39745 11.2052Z"
                        />
                    </svg>