<svg
                            
                            width="25"
                            height="22"
                            viewBox="0 0 25 22"
                            fill="none"
                            xmlns="http://www.w3.org/2000/svg"
                        >
                            <path
                                d="M0.424533 10.8464L5.99065 12.9337L8.16048 19.9543C8.25482 20.4287 8.82087 20.5236 9.19823 20.2389L12.3115 17.6774C12.5945 17.3927 13.0662 17.3927 13.4436 17.6774L19.0096 21.7569C19.387 22.0415 19.9531 21.8518 20.0474 21.3774L24.1984 1.45393C24.2927 0.979557 23.821 0.505192 23.3493 0.694939L0.424533 9.61308C-0.141511 9.80283 -0.141511 10.6567 0.424533 10.8464ZM7.87747 11.89L18.821 5.15401C19.0096 5.05913 19.1983 5.34376 19.0096 5.43863L10.0473 13.8824C9.76427 14.167 9.48124 14.5465 9.48124 15.0209L9.19823 17.2979C9.19823 17.5825 8.72652 17.6774 8.63218 17.2979L7.50008 13.1234C7.21706 12.649 7.40576 12.0798 7.87747 11.89Z"
                            />
                        </svg>