<svg
                            width="26"
                            height="28"
                            viewBox="0 0 26 28"
                            fill="none"
                            xmlns="http://www.w3.org/2000/svg"
                        >
                            <path
                                d="M19.8863 0.664591C15.2723 -0.22153 10.4809 -0.22153 5.86696 0.664591C3.82618 1.10765 1.25302 3.58879 0.809375 5.53825C0.0108074 9.34857 0.0108074 13.2475 0.809375 17.0578C1.34175 19.0073 3.91491 21.4884 5.86696 21.9315C5.95569 21.9315 6.04442 22.0201 6.04442 22.1087V27.6913C6.04442 27.9571 6.39935 28.1343 6.5768 27.8685L9.2387 25.1215C9.2387 25.1215 11.3682 22.9062 11.7231 22.5518C11.7231 22.5518 11.8119 22.4632 11.9006 22.4632C14.5625 22.5518 17.3131 22.2859 19.975 21.8429C22.0158 21.3998 24.5889 18.9187 25.0326 16.9692C25.8311 13.1589 25.8311 9.25996 25.0326 5.44964C24.5002 3.58879 21.927 1.10765 19.8863 0.664591ZM19.975 17.3237C19.5313 18.2098 18.999 18.9187 18.1117 19.3617C17.8455 19.4504 17.5793 19.539 17.3131 19.6276C16.9582 19.539 16.692 19.4504 16.4258 19.3617C13.5864 18.2098 10.9246 16.6148 8.79505 14.3109C7.64156 12.9817 6.66553 11.4753 5.86696 9.88025C5.51205 9.08274 5.15713 8.37384 4.89094 7.57633C4.62475 6.86744 5.0684 6.15854 5.51204 5.62687C5.95569 5.09519 6.48807 4.74075 7.10918 4.47491C7.55283 4.20907 7.99648 4.3863 8.3514 4.74075C9.06124 5.62687 9.77107 6.51299 10.3034 7.48772C10.6584 8.108 10.5696 8.8169 9.94853 9.25996C9.77107 9.34857 9.68234 9.43719 9.50488 9.61441C9.41615 9.70302 9.23869 9.79163 9.14996 9.96886C8.9725 10.2347 8.9725 10.5005 9.06123 10.7664C9.77107 12.8044 11.102 14.3995 13.1428 15.2856C13.4977 15.4628 13.7639 15.5514 14.2076 15.5514C14.8287 15.4628 15.0949 14.7539 15.5385 14.3995C15.9822 14.045 16.5145 14.045 17.0469 14.3109C17.4906 14.5767 17.9342 14.9311 18.4666 15.2856C18.9102 15.64 19.3539 15.9059 19.7975 16.2603C20.0637 16.4375 20.1524 16.8806 19.975 17.3237ZM16.2483 10.6778C16.0709 10.6778 16.1596 10.6778 16.2483 10.6778C15.8934 10.6778 15.8047 10.5005 15.716 10.2347C15.716 10.0575 15.716 9.79164 15.6272 9.61441C15.5385 9.25996 15.361 8.90551 15.0061 8.63968C14.8287 8.55107 14.6512 8.46245 14.4737 8.37384C14.2076 8.28523 14.0301 8.28523 13.7639 8.28523C13.4977 8.19662 13.409 8.01939 13.409 7.75356C13.409 7.57633 13.6752 7.39911 13.8526 7.39911C15.2723 7.48772 16.3371 8.28523 16.5145 9.96886C16.5145 10.0575 16.5145 10.2347 16.5145 10.3233C16.5145 10.5005 16.4258 10.6778 16.2483 10.6778ZM15.361 6.77882C14.9174 6.6016 14.4737 6.42438 13.9414 6.33576C13.7639 6.33576 13.4977 6.24715 13.3203 6.24715C13.0541 6.24715 12.8766 6.06993 12.9653 5.80409C12.9653 5.53825 13.1428 5.36103 13.409 5.44964C14.2963 5.53825 15.0949 5.71548 15.8934 6.06993C17.4906 6.86744 18.3779 8.19662 18.644 9.96886C18.644 10.0575 18.644 10.1461 18.644 10.2347C18.644 10.4119 18.644 10.5891 18.644 10.855C18.644 10.9436 18.644 11.0322 18.644 11.1208C18.5553 11.4753 17.9342 11.5639 17.8455 11.1208C17.8455 11.0322 17.7567 10.855 17.7567 10.7664C17.7567 9.96886 17.5793 9.17135 17.2244 8.46245C16.692 7.66494 16.0709 7.13327 15.361 6.77882ZM20.1524 12.0955C19.8863 12.0955 19.7088 11.8297 19.7088 11.5639C19.7088 11.0322 19.6201 10.5005 19.5313 9.96886C19.1764 7.13327 16.8694 4.82936 14.1188 4.3863C13.6752 4.29768 13.2315 4.29769 12.8766 4.20907C12.6104 4.20907 12.2555 4.20907 12.1668 3.85463C12.078 3.58879 12.3442 3.32295 12.6104 3.32295C12.6991 3.32295 12.7879 3.32295 12.7879 3.32295C16.4258 3.41157 12.9653 3.32295 12.7879 3.32295C16.5145 3.41157 19.6201 5.8927 20.2412 9.61441C20.3299 10.2347 20.4186 10.855 20.4186 11.5639C20.5961 11.8297 20.4186 12.0955 20.1524 12.0955Z"
                            />
                        </svg>